<svg id="Small_Icons" data-name="Small Icons" xmlns="http://www.w3.org/2000/svg" width="50" height="50" viewBox="0 0 50 50">
  <defs>
    <style>
      .cls-1 {
        fill: none;
        stroke: #fff;
        stroke-linecap: round;
        stroke-width: 3px;
      }

      .cls-1, .cls-2 {
        fill-rule: evenodd;
      }

      .cls-2 {
        fill: #fff;
        opacity: 0.25;
      }
    </style>
  </defs>
  <g id="Authentication">
    <path class="cls-1" d="M40.76,11.053L37,7.272a9.278,9.278,0,0,0-13.159,0,9.411,9.411,0,0,0-.873,12.221L6.921,35.629a1.342,1.342,0,0,0,0,1.89L10.681,41.3a1.324,1.324,0,0,0,1.88,0l0.94-.945,4.7,4.726a1.324,1.324,0,0,0,1.88,0l2.82-2.836-2.82-2.835a1.342,1.342,0,0,1,0-1.891,1.324,1.324,0,0,1,1.88,0l2.82,2.836L27.6,37.52a1.342,1.342,0,0,0,0-1.89L22.9,30.9l5.707-5.739a9.281,9.281,0,0,0,12.153-.878A9.406,9.406,0,0,0,40.76,11.053ZM37,20.506a3.971,3.971,0,0,1-5.031.5c-0.509-.343-3.935-3.848-4.368-4.284a4.032,4.032,0,0,1,0-5.671h0a3.977,3.977,0,0,1,5.64,0c0.478,0.481,3.92,3.883,4.26,4.393A4.027,4.027,0,0,1,37,20.506Z"/>
    <path class="cls-2" d="M12,31L44,16s-0.859,8.354-6,10a10.908,10.908,0,0,1-9-1l-5,4,3,7-7,9-6-4H10L7,36Z"/>
  </g>
</svg>
