<svg id="Small_Icons" data-name="Small Icons" xmlns="http://www.w3.org/2000/svg" width="50" height="50" viewBox="0 0 50 50">
  <defs>
    <style>
      .cls-1 {
        fill: none;
        stroke: #fff;
        stroke-width: 3px;
      }

      .cls-1, .cls-2 {
        fill-rule: evenodd;
      }

      .cls-2 {
        fill: #fff;
        opacity: 0.25;
      }
    </style>
  </defs>
  <g id="Basic_Icons" data-name="Basic Icons">
    <path id="Rounded_Rectangle_11" data-name="Rounded Rectangle 11" class="cls-1" d="M14.217,13.108h20.04a3,3,0,0,1,3,3v17.6a3,3,0,0,1-3,3H14.217a3,3,0,0,1-3-3v-17.6A3,3,0,0,1,14.217,13.108Z"/>
    <path class="cls-1" d="M11.8,26.695h4.732l3.549-3.549,4.732,7.1,4.732-8.28,2.366,4.732h4.732"/>
    <path id="Shape_17_copy" data-name="Shape 17 copy" class="cls-2" d="M11.8,26.695h4.732l3.549-3.549,4.732,7.1,4.732-8.28,2.366,4.732h4.732l-1.183,8.28L33.1,37.341l-20.11-1.183s-1.415-1.326-1.183-2.366S11.8,26.695,11.8,26.695Z"/>
    <path id="Rounded_Rectangle_11_copy" data-name="Rounded Rectangle 11 copy" class="cls-1" d="M21.929,3.5h5.125a3.632,3.632,0,0,1,3.79,3.45L32.107,12.5H16.875L18.139,6.95A3.632,3.632,0,0,1,21.929,3.5Z"/>
    <path class="cls-1" d="M38.5,22.688a1.812,1.812,0,0,1,0,3.623"/>
    <path id="Rounded_Rectangle_11_copy_2" data-name="Rounded Rectangle 11 copy 2" class="cls-1" d="M27.044,46.552h-5.1A3.64,3.64,0,0,1,18.17,43.06l-1.258-5.618H32.074L30.816,43.06A3.641,3.641,0,0,1,27.044,46.552Z"/>
  </g>
</svg>
