<svg xmlns="http://www.w3.org/2000/svg" width="16" height="16" viewBox="0 0 16 16">
  <defs>
    <style>
      .cls-1 {
        fill: none;
        stroke: #fff;
        stroke-width: 0.96px;
      }

      .cls-1, .cls-2 {
        fill-rule: evenodd;
      }

      .cls-2 {
        fill: #fff;
        opacity: 0.25;
      }
    </style>
  </defs>
  <path id="Rounded_Rectangle_2" data-name="Rounded Rectangle 2" class="cls-1" d="M2.4,1.76H3.36A1.28,1.28,0,0,1,4.64,3.04V4A1.28,1.28,0,0,1,3.36,5.28H2.4A1.28,1.28,0,0,1,1.12,4V3.04A1.28,1.28,0,0,1,2.4,1.76Z"/>
  <path id="Rounded_Rectangle_2_copy" data-name="Rounded Rectangle 2 copy" class="cls-1" d="M8.14,1.76h5.48A1.28,1.28,0,0,1,14.9,3.04V4a1.28,1.28,0,0,1-1.28,1.28H8.14A1.28,1.28,0,0,1,6.86,4V3.04A1.28,1.28,0,0,1,8.14,1.76Z"/>
  <path id="Rounded_Rectangle_2_copy_2" data-name="Rounded Rectangle 2 copy 2" class="cls-1" d="M2.4,7.36H3.36A1.28,1.28,0,0,1,4.64,8.64v4.48A1.28,1.28,0,0,1,3.36,14.4H2.4a1.28,1.28,0,0,1-1.28-1.28V8.64A1.28,1.28,0,0,1,2.4,7.36Z"/>
  <path id="Rounded_Rectangle_2_copy_2-2" data-name="Rounded Rectangle 2 copy 2" class="cls-1" d="M8.14,7.36H13.6a1.28,1.28,0,0,1,1.28,1.28v4.48A1.28,1.28,0,0,1,13.6,14.4H8.14a1.28,1.28,0,0,1-1.28-1.28V8.64A1.28,1.28,0,0,1,8.14,7.36Z"/>
  <path class="cls-2" d="M1.28,11.52L4.48,9.6v4.48H1.28V11.52Z"/>
  <path id="Shape_2_copy" data-name="Shape 2 copy" class="cls-2" d="M7.04,11.52L14.72,9.6v4.48H7.04V11.52Z"/>
</svg>
