<svg id="Small_Icons" data-name="Small Icons" xmlns="http://www.w3.org/2000/svg" width="50" height="50" viewBox="0 0 50 50">
  <defs>
    <style>
      .cls-1 {
        fill: none;
        stroke: #fff;
        stroke-linecap: round;
        stroke-width: 3px;
      }

      .cls-1, .cls-2 {
        fill-rule: evenodd;
      }

      .cls-2 {
        fill: #fff;
        opacity: 0.25;
      }
    </style>
  </defs>
  <g id="menu">
    <path id="Rounded_Rectangle_17" data-name="Rounded Rectangle 17" class="cls-1" d="M7.647,4.5H33.353a3,3,0,0,1,3,3v2a3,3,0,0,1-3,3H7.647a3,3,0,0,1-3-3v-2A3,3,0,0,1,7.647,4.5Z"/>
    <path id="Rounded_Rectangle_17_copy" data-name="Rounded Rectangle 17 copy" class="cls-1" d="M7.486,20.6h35a3,3,0,0,1,3,3v1.983a3,3,0,0,1-3,3h-35a3,3,0,0,1-3-3V23.6A3,3,0,0,1,7.486,20.6Z"/>
    <path id="Rounded_Rectangle_17_copy_2" data-name="Rounded Rectangle 17 copy 2" class="cls-1" d="M6.819,36.5H23.181a3,3,0,0,1,3,3V41.5a3,3,0,0,1-3,3H6.819a3,3,0,0,1-3-3V39.5A3,3,0,0,1,6.819,36.5Z"/>
    <path class="cls-2" d="M4.525,38l7.858-2,12.049,1L26,39,25.48,43l-4.191,2H5.572L4,41Z"/>
  </g>
</svg>
