<svg id="Small_Icons" data-name="Small Icons" xmlns="http://www.w3.org/2000/svg" width="50" height="50" viewBox="0 0 50 50">
  <defs>
    <style>
      .cls-1, .cls-2 {
        fill: #fff;
        fill-rule: evenodd;
      }

      .cls-1 {
        stroke: #fff;
        stroke-width: 0.5px;
      }

      .cls-2 {
        opacity: 0.25;
      }
    </style>
  </defs>
  <g id="Notification">
    <path class="cls-1" d="M42.331,38.043a6.861,6.861,0,0,1-2.1-2.835c-1.805-3.8-2.184-9.144-2.184-12.961,0-.017,0-0.033,0-0.05A12.507,12.507,0,0,0,30.64,10.85V7.866A4.929,4.929,0,0,0,25.7,2.954H25.3a4.929,4.929,0,0,0-4.935,4.912V10.85a12.507,12.507,0,0,0-7.412,11.4c0,3.817-.379,9.165-2.184,12.961a6.86,6.86,0,0,1-2.1,2.835,1.253,1.253,0,0,0-.694,1.428,1.321,1.321,0,0,0,1.3,1.01h9.529a6.694,6.694,0,0,0,13.385,0h9.529a1.321,1.321,0,0,0,1.3-1.01,1.254,1.254,0,0,0-.694-1.428h0ZM22.961,7.866A2.333,2.333,0,0,1,25.3,5.542H25.7A2.333,2.333,0,0,1,28.04,7.866v2.146a12.665,12.665,0,0,0-5.079,0V7.866ZM25.5,44.459a4.09,4.09,0,0,1-4.093-3.978h8.185A4.09,4.09,0,0,1,25.5,44.459h0Zm5.235-6.566H12.242a13.554,13.554,0,0,0,.681-1.188c1.742-3.414,2.626-8.278,2.626-14.458a9.951,9.951,0,0,1,19.9,0c0,0.016,0,.032,0,0.048,0,6.155.888,11,2.626,14.406a13.581,13.581,0,0,0,.681,1.188H30.735Zm0,0"/>
    <path class="cls-2" d="M14,29l22-6s0.333,6.5,2,10,3,6,3,6H11Z"/>
  </g>
</svg>
