<svg id="Big_Icons" data-name="Big Icons" xmlns="http://www.w3.org/2000/svg" width="50" height="50" viewBox="0 0 50 50">
  <defs>
    <style>
      .cls-1 {
        fill: #fff;
        opacity: 0.25;
      }

      .cls-1, .cls-2 {
        fill-rule: evenodd;
      }

      .cls-2, .cls-3 {
        fill: none;
        stroke: #fff;
        stroke-width: 3px;
      }
    </style>
  </defs>
  <g id="Pages">
    <path class="cls-1" d="M9.24,35.37L40.76,27.332V43.407l-3.5,3.445H13.91l-3.5-3.445Z"/>
    <path id="Rounded_Rectangle_4" data-name="Rounded Rectangle 4" class="cls-2" d="M40.511,15.012V42.167a3.326,3.326,0,0,1-3.3,3.351H13.79a3.326,3.326,0,0,1-3.3-3.351V7.231A3.745,3.745,0,0,1,14.5,3.473H31"/>
    <circle class="cls-3" cx="19.156" cy="26.75" r="1.75"/>
    <circle id="Ellipse_4_copy" data-name="Ellipse 4 copy" class="cls-3" cx="19.156" cy="37.094" r="1.75"/>
    <path id="Rounded_Rectangle_4_copy" data-name="Rounded Rectangle 4 copy" class="cls-2" d="M29.779,2.671V12.955A4.46,4.46,0,0,0,33.755,17h8.172"/>
    <path class="cls-2" d="M30.454,3.061l10.1,12.948"/>
  </g>
</svg>
