<svg id="Small_Icons" data-name="Small Icons" xmlns="http://www.w3.org/2000/svg" width="50" height="50" viewBox="0 0 50 50">
  <defs>
    <style>
      .cls-1, .cls-2 {
        fill: #fff;
        fill-rule: evenodd;
      }

      .cls-2 {
        opacity: 0.25;
      }
    </style>
  </defs>
  <g id="settings">
    <path class="cls-1" d="M26.319,46.019H23.681a3.875,3.875,0,0,1-3.87-3.87V41.256a16.96,16.96,0,0,1-2.635-1.094l-0.632.633a3.87,3.87,0,0,1-5.474,0L9.2,38.93a3.87,3.87,0,0,1,0-5.474l0.632-.632a16.949,16.949,0,0,1-1.094-2.636H7.851a3.874,3.874,0,0,1-3.87-3.87V23.681a3.874,3.874,0,0,1,3.87-3.87H8.744a16.949,16.949,0,0,1,1.094-2.636l-0.632-.632a3.87,3.87,0,0,1,0-5.474L11.07,9.205a3.869,3.869,0,0,1,5.473,0l0.632,0.632a16.949,16.949,0,0,1,2.636-1.094V7.851a3.874,3.874,0,0,1,3.87-3.87h2.639a3.874,3.874,0,0,1,3.87,3.87V8.744a16.949,16.949,0,0,1,2.636,1.094l0.632-.632a3.87,3.87,0,0,1,5.474,0L40.8,11.07a3.87,3.87,0,0,1,0,5.474l-0.632.632a16.946,16.946,0,0,1,1.094,2.636h0.892a3.874,3.874,0,0,1,3.87,3.87v2.639a3.874,3.874,0,0,1-3.87,3.87H41.256a16.946,16.946,0,0,1-1.094,2.636L40.8,33.457a3.87,3.87,0,0,1,0,5.474L38.93,40.8a3.869,3.869,0,0,1-5.473,0l-0.632-.632a16.984,16.984,0,0,1-2.636,1.094v0.892a3.874,3.874,0,0,1-3.87,3.87h0Zm-8.732-8.443a14.529,14.529,0,0,0,3.763,1.562,1.232,1.232,0,0,1,.924,1.193v1.818a1.408,1.408,0,0,0,1.406,1.407h2.639a1.409,1.409,0,0,0,1.407-1.407V40.331a1.232,1.232,0,0,1,.924-1.193,14.537,14.537,0,0,0,3.763-1.562,1.231,1.231,0,0,1,1.5.189L35.2,39.053a1.406,1.406,0,0,0,1.989,0l1.866-1.866a1.406,1.406,0,0,0,0-1.989l-1.288-1.288a1.232,1.232,0,0,1-.189-1.5,14.512,14.512,0,0,0,1.562-3.763,1.231,1.231,0,0,1,1.192-.924h1.818a1.409,1.409,0,0,0,1.407-1.407V23.681a1.408,1.408,0,0,0-1.407-1.406H40.331a1.232,1.232,0,0,1-1.192-.924,14.514,14.514,0,0,0-1.562-3.763,1.231,1.231,0,0,1,.189-1.5L39.054,14.8a1.406,1.406,0,0,0,0-1.989l-1.866-1.866a1.406,1.406,0,0,0-1.989,0l-1.289,1.288a1.231,1.231,0,0,1-1.5.189,14.524,14.524,0,0,0-3.763-1.562,1.231,1.231,0,0,1-.924-1.193V7.851a1.409,1.409,0,0,0-1.407-1.407H23.681a1.409,1.409,0,0,0-1.407,1.407V9.669a1.232,1.232,0,0,1-.924,1.193,14.534,14.534,0,0,0-3.763,1.562,1.233,1.233,0,0,1-1.5-.189L14.8,10.947a1.406,1.406,0,0,0-1.989,0l-1.866,1.866a1.406,1.406,0,0,0,0,1.989l1.289,1.288a1.233,1.233,0,0,1,.189,1.5,14.529,14.529,0,0,0-1.562,3.763,1.232,1.232,0,0,1-1.193.924H7.851a1.409,1.409,0,0,0-1.407,1.407v2.639a1.408,1.408,0,0,0,1.407,1.406H9.669a1.232,1.232,0,0,1,1.193.924,14.529,14.529,0,0,0,1.562,3.763,1.233,1.233,0,0,1-.189,1.5L10.946,35.2a1.406,1.406,0,0,0,0,1.989l1.866,1.866a1.406,1.406,0,0,0,1.989,0l1.288-1.288a1.237,1.237,0,0,1,1.5-.189h0Zm0,0M25,34.147A9.147,9.147,0,1,1,34.147,25,9.157,9.157,0,0,1,25,34.147h0Zm0-15.83A6.683,6.683,0,1,0,31.684,25,6.691,6.691,0,0,0,25,18.317h0Zm0,0"/>
    <path class="cls-2" d="M9,29l7-3s2.5,7.333,8,7,9-10,9-10l7-3,5,3v4l-5,4-1,3,2,3-5,4-4-2-3,2-1,4H22l-3-6-6,2-3-3,1-5Z"/>
  </g>
</svg>
