<svg id="Big_Icons" data-name="Big Icons" xmlns="http://www.w3.org/2000/svg" width="50" height="50" viewBox="0 0 50 50">
  <defs>
    <style>
      .cls-1, .cls-3 {
        fill: none;
        stroke: #fff;
        stroke-width: 3px;
      }

      .cls-1, .cls-2 {
        fill-rule: evenodd;
      }

      .cls-2 {
        fill: #fff;
        opacity: 0.25;
      }
    </style>
  </defs>
  <g id="UI_Kits" data-name="UI Kits">
    <path id="Rounded_Rectangle_5_copy" data-name="Rounded Rectangle 5 copy" class="cls-1" d="M7.5,4.5H17.5a3,3,0,0,1,3,3v38H4.5V7.5A3,3,0,0,1,7.5,4.5Z"/>
    <path class="cls-2" d="M4.294,23.412l15.529-5.177V44.412H5.588Z"/>
    <path id="Rounded_Rectangle_5_copy_2" data-name="Rounded Rectangle 5 copy 2" class="cls-1" d="M20.809,19.857L31.6,9.071a3.882,3.882,0,0,1,5.49,0l5.49,5.49a3.882,3.882,0,0,1,0,5.49L31.571,31.057,20.659,41.97"/>
    <path id="Rounded_Rectangle_5_copy_3" data-name="Rounded Rectangle 5 copy 3" class="cls-1" d="M32.307,29.549h9.169a3.985,3.985,0,0,1,3.989,3.982V41.5a3.985,3.985,0,0,1-3.989,3.982H20"/>
    <circle id="Ellipse_4_copy_2" data-name="Ellipse 4 copy 2" class="cls-3" cx="12.703" cy="35.703" r="1.609"/>
  </g>
</svg>
