<svg id="Small_Icons" data-name="Small Icons" xmlns="http://www.w3.org/2000/svg" width="50" height="50" viewBox="0 0 50 50">
  <defs>
    <style>
      .cls-1 {
        fill: none;
        stroke: #fff;
        stroke-linecap: round;
        stroke-width: 3px;
      }

      .cls-1, .cls-2 {
        fill-rule: evenodd;
      }

      .cls-2 {
        fill: #fff;
        opacity: 0.25;
      }
    </style>
  </defs>
  <g id="widgets">
    <path id="Rounded_Rectangle_18" data-name="Rounded Rectangle 18" class="cls-1" d="M6.395,4.355H19.222a3,3,0,0,1,3,3v12.29a3,3,0,0,1-3,3H6.395a3,3,0,0,1-3-3V7.355A3,3,0,0,1,6.395,4.355Z"/>
    <path id="Rounded_Rectangle_18_copy" data-name="Rounded Rectangle 18 copy" class="cls-1" d="M30.778,4.355H43.605a3,3,0,0,1,3,3v12.29a3,3,0,0,1-3,3H30.778a3,3,0,0,1-3-3V7.355A3,3,0,0,1,30.778,4.355Z"/>
    <path id="Rounded_Rectangle_18_copy_2" data-name="Rounded Rectangle 18 copy 2" class="cls-1" d="M6.395,27.355H19.222a3,3,0,0,1,3,3v12.29a3,3,0,0,1-3,3H6.395a3,3,0,0,1-3-3V30.355A3,3,0,0,1,6.395,27.355Z"/>
    <path class="cls-2" d="M21.7,43.718L17,45H4V39l18.254-2.547"/>
    <path id="Shape_48_copy" data-name="Shape 48 copy" class="cls-2" d="M28.178,35.626L47,33V43l-5,3L29,45l-1-3"/>
    <path id="Rounded_Rectangle_18_copy_2-2" data-name="Rounded Rectangle 18 copy 2" class="cls-1" d="M30.778,27.355H43.605a3,3,0,0,1,3,3v12.29a3,3,0,0,1-3,3H30.778a3,3,0,0,1-3-3V30.355A3,3,0,0,1,30.778,27.355Z"/>
  </g>
</svg>
